<svg width="525" height="445" viewBox="0 0 525 445" fill="none" xmlns="http://www.w3.org/2000/svg">
<path d="M165.439 2.47493C162.222 4.04906 158.593 6.8522 155.359 10.2782C152.58 13.2161 149.102 18.0816 147.629 21.0783C146.155 24.0751 144.168 29.5635 143.199 33.2673C141.97 38.015 141.448 42.6111 141.448 48.8403C141.456 55.019 141.987 59.8339 143.233 64.8341C144.21 68.7737 146.206 74.2284 147.662 76.9642C149.119 79.7084 151.671 83.4964 153.346 85.382C155.014 87.276 158.424 89.9613 160.925 91.3503C164.909 93.5642 166.29 93.8756 172.201 93.8756C177.666 93.8756 179.729 93.48 183.148 91.7964C185.464 90.6516 189.633 87.4276 192.411 84.6244C195.392 81.6193 198.567 77.2841 200.159 74.0769C201.641 71.0717 203.679 65.5917 204.689 61.8879C206.053 56.8709 206.525 52.7882 206.525 45.894C206.525 39.2776 206.045 34.833 204.832 30.3211C203.906 26.8529 202.003 21.7349 200.613 18.957C199.224 16.1791 196.243 11.8861 193.986 9.41121C191.46 6.63333 187.948 3.96488 184.833 2.44967C181.077 0.614588 178.584 -0.00833381 175.123 8.40065e-05C171.721 0.00850183 169.127 0.673512 165.439 2.47493ZM71.5703 14.2346C69.9451 14.5882 67.4861 15.4636 66.0967 16.1876C64.7072 16.9115 61.8862 19.3442 59.823 21.6002C57.7599 23.8478 55.2252 27.5853 54.1894 29.9002C53.1452 32.2151 51.8484 36.7607 51.2926 40.0016C50.7031 43.4445 50.4926 48.8739 50.7789 53.0492C51.0568 56.9887 51.8652 62.4771 52.581 65.255C53.2968 68.0329 55.6799 73.9001 57.8694 78.3026C60.9852 84.5487 63.242 87.7053 68.1851 92.7055C72.7409 97.3101 76.1682 99.9028 80.4124 101.965C85.8439 104.6 86.9302 104.819 94.307 104.819C100.117 104.819 102.997 104.44 104.833 103.447C106.223 102.689 108.8 100.601 110.551 98.8169C112.311 97.0239 114.677 93.6652 115.814 91.3503C116.951 89.0354 118.484 84.3046 119.225 80.828C120.159 76.4339 120.404 72.5954 120.033 68.2013C119.738 64.7331 118.913 59.4215 118.189 56.4163C117.465 53.4112 115.258 47.5355 113.288 43.3687C111.326 39.2019 107.924 33.5198 105.734 30.742C103.545 27.9641 99.9743 24.1761 97.8017 22.3241C95.6207 20.4722 91.5786 17.9469 88.8081 16.7095C86.046 15.472 81.6924 14.2683 79.1492 14.041C76.5977 13.8053 73.1872 13.8895 71.5703 14.2346ZM240.832 63.622C238.281 64.3291 234.685 65.8022 232.832 66.8965C230.98 67.9824 226.971 71.4758 223.923 74.6409C220.874 77.8144 217.026 82.8735 215.367 85.8787C213.708 88.8838 211.536 94.0019 210.533 97.2427C209.531 100.484 208.512 106.544 208.26 110.711C207.931 116.191 208.201 119.92 209.211 124.18C209.986 127.421 211.822 132.311 213.304 135.047C214.778 137.775 217.506 141.293 219.359 142.85C221.211 144.408 224.622 146.293 226.937 147.043C229.556 147.884 232.9 148.255 235.78 148.036C238.651 147.817 242.651 146.622 246.306 144.904C250.483 142.943 253.809 140.494 257.716 136.52C261.64 132.53 264.251 128.852 266.76 123.759C268.706 119.828 270.861 114.331 271.56 111.553C272.268 108.775 273.059 103.666 273.337 100.189C273.674 95.8538 273.405 91.8974 272.478 87.5622C271.729 84.0941 270.238 79.3549 269.16 77.04C268.082 74.7251 266.247 71.6947 265.076 70.3057C263.914 68.9168 261.101 66.7618 258.836 65.5076C256.419 64.1775 252.815 63.0496 250.095 62.7802C247.156 62.494 243.771 62.797 240.832 63.622ZM15.1497 93.7241C13.5245 94.2376 10.055 96.7545 7.4361 99.3135C3.69719 102.975 2.38352 104.97 1.32247 108.607C0.539322 111.284 -0.0164694 116.25 0.000372615 120.392C0.0087936 124.331 0.623531 129.82 1.34774 132.598C2.08036 135.375 3.70561 139.736 4.96033 142.278C6.21506 144.82 8.39609 148.608 9.8024 150.696C11.2087 152.784 14.4087 156.504 16.9181 158.979C19.4192 161.454 23.5455 164.72 26.097 166.244C28.6401 167.759 32.8085 169.712 35.3601 170.57C38.2569 171.555 42.3495 172.136 46.3074 172.128C50.0968 172.128 54.1389 171.564 56.4126 170.73C58.8799 169.821 61.6251 167.767 64.2693 164.855C67.0651 161.774 68.7577 158.929 69.7093 155.747C70.5514 152.893 71.0482 148.364 70.9977 143.962C70.9388 138.759 70.324 134.971 68.7493 130.072C67.5535 126.368 65.1451 120.964 63.3936 118.068C61.6336 115.173 58.4925 110.846 56.4126 108.447C54.3241 106.056 49.9705 102.251 46.7284 99.9954C43.3516 97.6468 38.5011 95.1888 35.3601 94.2376C31.8991 93.1853 27.7223 92.6129 23.9918 92.6803C20.7497 92.7392 16.7666 93.2022 15.1497 93.7241ZM138.096 112.807C135.545 113.203 131.191 114.314 128.412 115.291C125.633 116.259 121.33 118.279 118.846 119.777C116.362 121.276 111.814 125.198 108.741 128.507C105.338 132.16 101.17 138.027 98.0964 143.49C95.3175 148.432 90.4923 156.142 87.3681 160.637C84.2439 165.124 78.5934 173.34 74.8124 178.896C71.023 184.451 66.5009 192.027 64.7493 195.731C62.9978 199.435 61.0104 204.553 60.3367 207.095C59.6631 209.637 58.8294 214.377 58.4925 217.618C58.0378 221.978 58.2568 225.261 59.3346 230.244C60.1346 233.948 61.7936 238.822 63.023 241.07C64.2525 243.326 67.1493 246.954 69.4651 249.142C71.7809 251.331 75.284 253.94 77.2545 254.942C79.225 255.944 83.1997 257.375 86.0965 258.124C90.0039 259.134 92.9933 259.336 97.6754 258.89C101.616 258.528 107.317 257.097 112.833 255.102C117.692 253.334 126.029 250.093 131.359 247.896C136.681 245.699 144.639 242.955 149.043 241.794C155.73 240.026 158.98 239.681 168.833 239.664C175.317 239.655 186.113 240.304 192.833 241.112C200.9 242.088 207.047 242.383 210.938 241.996C214.18 241.676 218.912 240.775 221.464 239.992C224.007 239.218 228.175 237.206 230.727 235.531C233.295 233.847 236.984 230.295 238.996 227.576C241.262 224.52 243.291 220.446 244.377 216.776C245.784 212.062 246.036 209.536 245.657 204.149C245.396 200.445 244.377 195.142 243.401 192.364C242.424 189.586 240.041 184.662 238.121 181.421C236.057 177.944 231.325 172.229 226.567 167.473C222.138 163.036 213.969 155.78 208.411 151.344C202.853 146.899 193.38 138.591 187.359 132.875C181.338 127.16 174.517 121.267 172.201 119.769C169.885 118.279 165.338 116.124 162.096 114.996C158.635 113.784 153.422 112.765 149.464 112.513C145.759 112.277 140.639 112.412 138.096 112.807ZM350.726 178.172C348.873 178.862 345.842 180.537 343.989 181.876C342.137 183.222 339.265 186.135 337.598 188.34C335.939 190.554 333.783 193.686 332.798 195.31C331.821 196.935 330.052 201.102 328.865 204.57C327.686 208.047 326.347 213.628 325.884 216.986C325.328 221.01 325.32 225.598 325.867 230.455C326.322 234.504 327.307 239.908 328.057 242.45C328.806 244.992 330.802 249.698 332.495 252.888C334.406 256.508 337.48 260.498 340.621 263.453C344.158 266.778 347.063 268.672 350.305 269.758C352.848 270.608 356.638 271.306 358.726 271.306C360.806 271.306 364.595 270.625 367.147 269.791C370.658 268.638 373.016 267.03 376.898 263.15C380.312 259.732 383.046 255.919 385.1 251.71C386.793 248.242 388.839 242.93 389.648 239.925C390.7 236.019 391.121 231.204 391.13 223.089C391.147 213.543 390.835 210.715 389.193 205.412C388.115 201.944 385.791 196.632 384.023 193.627C382.263 190.622 379.063 186.547 376.932 184.578C374.793 182.608 371.054 180.057 368.621 178.904C365.37 177.364 362.861 176.825 359.147 176.858C356.368 176.884 352.579 177.481 350.726 178.172ZM451.357 200.445C449.268 200.849 445.294 202.297 442.515 203.661C439.736 205.025 435.357 207.962 432.788 210.193C430.212 212.424 426.565 216.144 424.679 218.459C422.793 220.774 420.081 224.756 418.65 227.298C417.218 229.84 415.079 234.773 413.9 238.241C412.721 241.718 411.323 247.585 410.801 251.289C410.069 256.432 410.077 259.521 410.852 264.336C411.408 267.813 412.89 272.881 414.136 275.608C415.433 278.436 417.942 281.955 419.989 283.815C421.959 285.6 424.898 287.629 426.515 288.327C428.317 289.102 432.081 289.59 436.199 289.59C440.527 289.59 444.519 289.043 447.357 288.058C449.79 287.216 454.051 284.985 456.83 283.091C459.609 281.197 463.264 278.192 464.957 276.416C466.649 274.631 469.597 270.902 471.508 268.124C473.42 265.347 476.157 260.237 477.588 256.76C479.02 253.292 480.704 247.989 481.335 244.975C481.967 241.97 482.489 236.76 482.497 233.401C482.506 230.042 482.093 225.311 481.58 222.879C481.058 220.446 479.769 216.565 478.708 214.25C477.563 211.767 474.927 208.375 472.274 205.984C469.31 203.307 466.338 201.514 463.567 200.715C461.251 200.05 458.405 199.545 457.251 199.603C456.089 199.662 453.437 200.033 451.357 200.445ZM276.621 229.512C275.695 229.748 273.607 230.354 271.99 230.859C270.373 231.372 267.013 233.712 264.529 236.069C262.045 238.418 259.148 242.046 258.087 244.134C257.034 246.221 255.476 250.195 254.626 252.972C253.489 256.71 253.101 260.658 253.127 268.124C253.152 273.68 253.64 279.926 254.221 282.014C254.794 284.102 256.815 289.026 258.701 292.957C261.236 298.243 263.586 301.577 267.695 305.718C271.089 309.136 275.055 312.167 277.884 313.48C280.428 314.675 284.79 315.879 287.569 316.165C291.552 316.586 293.606 316.325 297.253 314.961C299.796 314.002 303.4 311.939 305.253 310.374C307.105 308.808 309.817 305.289 311.282 302.562C312.747 299.826 314.533 295.499 315.248 292.957C315.964 290.415 316.789 286.054 317.084 283.277C317.379 280.499 317.227 275.389 316.739 271.913C316.25 268.444 315.097 263.141 314.162 260.128C313.236 257.114 311.038 252.291 309.286 249.403C307.535 246.516 304.006 242.038 301.463 239.445C298.768 236.701 294.718 233.712 291.779 232.307C289 230.968 284.832 229.697 282.516 229.487C280.2 229.276 277.548 229.285 276.621 229.512ZM487.988 287.536C484.746 288.672 480.013 290.827 477.479 292.326C474.935 293.833 469.917 297.999 466.321 301.585C460.965 306.931 459.112 309.515 456.081 315.896C454.043 320.18 451.963 325.484 451.449 327.681C450.936 329.878 450.515 334.238 450.506 337.361C450.498 340.484 451.054 344.937 451.727 347.252C452.401 349.567 453.832 352.766 454.894 354.365C455.963 355.956 458.439 358.515 460.409 360.047C462.38 361.571 465.597 363.237 467.567 363.751C469.538 364.256 473.605 364.66 476.62 364.643C479.66 364.635 484.527 363.869 487.567 362.926C490.582 362 495.878 359.382 499.356 357.109C502.826 354.836 507.592 350.939 509.933 348.431C512.283 345.93 515.76 341.233 517.664 337.992C519.567 334.752 522.009 329.255 523.087 325.787C524.577 320.98 525.032 317.562 524.998 311.476C524.956 304.675 524.628 302.789 522.767 298.85C521.562 296.307 519.078 292.89 517.251 291.273C515.415 289.657 511.878 287.654 509.377 286.837C506.767 285.979 502.497 285.373 499.356 285.415C495.87 285.457 491.744 286.231 487.988 287.536ZM363.778 292.949C360.301 293.883 355.189 295.752 352.41 297.107C349.631 298.462 344.899 301.417 341.884 303.664C338.869 305.912 333.951 309.422 330.937 311.459C327.922 313.505 320.537 317.992 314.516 321.426C308.495 324.869 300.343 329.878 296.411 332.554C292.478 335.231 286.221 340.585 282.516 344.449C278.811 348.304 274.583 353.734 273.118 356.512C271.653 359.289 269.809 363.835 269.009 366.613C267.973 370.249 267.67 373.667 267.931 378.819C268.209 384.307 268.823 387.102 270.558 390.814C271.813 393.474 274.676 397.641 276.933 400.074C279.198 402.507 283.265 405.714 285.985 407.204C288.714 408.694 293.59 410.503 296.832 411.236C300.436 412.044 310.246 412.852 322.095 413.307C336.68 413.871 343.282 414.485 348.831 415.798C352.882 416.758 358.566 418.433 361.463 419.527C364.36 420.622 368.806 422.566 371.357 423.854C373.901 425.142 380.722 429.065 386.515 432.567C392.3 436.077 399.5 439.966 402.515 441.229C405.53 442.491 410.448 443.947 413.462 444.469C417.429 445.16 420.443 445.176 424.41 444.52C427.424 444.023 431.871 442.676 434.304 441.523C436.738 440.37 440.527 437.769 442.725 435.749C444.923 433.728 447.921 429.839 449.386 427.12C450.851 424.401 452.704 419.898 453.504 417.12C454.658 413.105 454.86 409.998 454.515 401.968C454.178 394.139 453.563 390.259 451.778 384.711C450.515 380.78 445.041 368.65 439.618 357.774C434.195 346.898 429.075 335.905 428.241 333.363C427.399 330.82 425.277 325.702 423.509 321.999C421.74 318.295 418.456 312.991 416.199 310.214C413.757 307.208 409.395 303.353 405.412 300.685C401.201 297.865 396.233 295.423 391.989 294.093C387.66 292.73 382.549 291.846 377.673 291.619C371.863 291.341 368.621 291.652 363.778 292.949Z" fill="#F4A9A8"/>
</svg>
