<svg width="370" height="370" viewBox="0 0 370 370" fill="none" xmlns="http://www.w3.org/2000/svg">
<rect width="370" height="370" rx="175" fill="#F4A9A8"/>
<path d="M148.024 71.4455C146.799 72.0468 145.416 73.1177 144.184 74.4265C143.126 75.5488 141.801 77.4076 141.239 78.5524C140.678 79.6972 139.921 81.7939 139.552 83.2089C139.084 85.0226 138.885 86.7784 138.885 89.1581C138.888 91.5185 139.09 93.3579 139.565 95.2681C139.937 96.7731 140.697 98.8569 141.252 99.9021C141.807 100.95 142.779 102.398 143.418 103.118C144.053 103.841 145.352 104.867 146.305 105.398C147.822 106.244 148.348 106.363 150.6 106.363C152.682 106.363 153.468 106.211 154.771 105.568C155.653 105.131 157.241 103.899 158.3 102.828C159.435 101.68 160.645 100.024 161.251 98.799C161.816 97.651 162.592 95.5575 162.977 94.1426C163.497 92.226 163.676 90.6663 163.676 88.0326C163.676 85.5049 163.493 83.807 163.031 82.0833C162.679 80.7584 161.954 78.8032 161.424 77.742C160.895 76.6808 159.759 75.0407 158.899 74.0953C157.937 73.0341 156.599 72.0147 155.412 71.4358C153.982 70.7348 153.032 70.4968 151.714 70.5C150.418 70.5032 149.43 70.7573 148.024 71.4455ZM112.265 75.9379C111.646 76.073 110.709 76.4075 110.18 76.684C109.65 76.9606 108.576 77.8899 107.79 78.7518C107.004 79.6104 106.038 81.0382 105.644 81.9225C105.246 82.8069 104.752 84.5434 104.54 85.7815C104.315 87.0968 104.235 89.1709 104.344 90.766C104.45 92.271 104.758 94.3677 105.031 95.4289C105.304 96.4901 106.211 98.7315 107.045 100.413C108.232 102.799 109.092 104.005 110.975 105.916C112.711 107.675 114.016 108.665 115.633 109.453C117.702 110.46 118.116 110.543 120.926 110.543C123.14 110.543 124.237 110.398 124.936 110.019C125.466 109.73 126.447 108.932 127.115 108.25C127.785 107.565 128.687 106.282 129.12 105.398C129.553 104.514 130.137 102.706 130.419 101.378C130.775 99.6995 130.868 98.2331 130.727 96.5544C130.615 95.2295 130.3 93.2003 130.024 92.0523C129.748 90.9043 128.908 88.6596 128.157 87.0678C127.41 85.476 126.114 83.3053 125.28 82.2441C124.446 81.1829 123.085 79.7358 122.258 79.0283C121.427 78.3208 119.887 77.3561 118.832 76.8834C117.779 76.4107 116.121 75.9508 115.152 75.864C114.18 75.7739 112.881 75.8061 112.265 75.9379ZM176.746 94.805C175.774 95.0751 174.404 95.6379 173.698 96.056C172.992 96.4708 171.465 97.8054 170.304 99.0145C169.143 100.227 167.677 102.16 167.045 103.308C166.413 104.456 165.585 106.411 165.203 107.649C164.821 108.887 164.433 111.202 164.337 112.794C164.212 114.888 164.315 116.312 164.7 117.939C164.995 119.178 165.694 121.046 166.259 122.091C166.82 123.133 167.859 124.477 168.565 125.072C169.271 125.667 170.57 126.387 171.452 126.674C172.45 126.995 173.724 127.137 174.821 127.053C175.915 126.969 177.438 126.513 178.831 125.857C180.422 125.107 181.689 124.172 183.178 122.654C184.673 121.13 185.667 119.724 186.623 117.779C187.364 116.277 188.185 114.177 188.452 113.116C188.721 112.055 189.023 110.103 189.128 108.774C189.257 107.118 189.154 105.607 188.801 103.951C188.516 102.626 187.948 100.815 187.537 99.931C187.127 99.0467 186.427 97.889 185.981 97.3584C185.539 96.8278 184.467 96.0045 183.604 95.5254C182.684 95.0173 181.311 94.5863 180.274 94.4834C179.155 94.3741 177.865 94.4899 176.746 94.805ZM90.7713 106.305C90.1522 106.501 88.8305 107.462 87.8328 108.44C86.4085 109.839 85.908 110.601 85.5038 111.99C85.2055 113.013 84.9937 114.91 85.0001 116.492C85.0033 117.997 85.2375 120.094 85.5134 121.155C85.7925 122.216 86.4117 123.882 86.8897 124.853C87.3676 125.825 88.1985 127.272 88.7342 128.069C89.27 128.867 90.489 130.288 91.445 131.234C92.3978 132.179 93.9697 133.427 94.9417 134.009C95.9105 134.588 97.4985 135.334 98.4705 135.662C99.5741 136.038 101.133 136.26 102.641 136.257C104.085 136.257 105.624 136.041 106.49 135.723C107.43 135.376 108.476 134.591 109.484 133.478C110.549 132.301 111.193 131.214 111.556 129.999C111.877 128.909 112.066 127.178 112.047 125.497C112.024 123.509 111.79 122.062 111.19 120.191C110.735 118.776 109.817 116.711 109.15 115.605C108.479 114.499 107.283 112.846 106.49 111.929C105.695 111.016 104.036 109.562 102.801 108.7C101.515 107.803 99.6671 106.864 98.4705 106.501C97.152 106.099 95.5609 105.88 94.1397 105.906C92.9046 105.928 91.3873 106.105 90.7713 106.305ZM137.608 113.595C136.636 113.746 134.977 114.171 133.919 114.544C132.86 114.913 131.221 115.685 130.275 116.258C129.328 116.83 127.596 118.329 126.425 119.592C125.129 120.988 123.541 123.229 122.37 125.317C121.311 127.204 119.473 130.15 118.283 131.867C117.093 133.581 114.94 136.72 113.5 138.842C112.056 140.965 110.334 143.859 109.666 145.274C108.999 146.689 108.242 148.644 107.985 149.615C107.729 150.586 107.411 152.397 107.283 153.635C107.11 155.301 107.193 156.555 107.604 158.458C107.908 159.873 108.54 161.735 109.009 162.594C109.477 163.456 110.581 164.842 111.463 165.678C112.345 166.514 113.68 167.511 114.43 167.894C115.181 168.276 116.695 168.823 117.799 169.109C119.287 169.495 120.426 169.572 122.21 169.402C123.711 169.264 125.883 168.717 127.984 167.955C129.835 167.279 133.011 166.041 135.042 165.202C137.069 164.363 140.101 163.314 141.778 162.871C144.326 162.195 145.564 162.063 149.317 162.057C151.787 162.054 155.9 162.301 158.46 162.61C161.533 162.983 163.875 163.096 165.357 162.948C166.592 162.826 168.395 162.481 169.367 162.182C170.336 161.887 171.924 161.118 172.896 160.478C173.874 159.835 175.28 158.478 176.046 157.439C176.909 156.272 177.682 154.715 178.096 153.313C178.632 151.512 178.728 150.548 178.584 148.49C178.484 147.075 178.096 145.049 177.724 143.987C177.352 142.926 176.444 141.045 175.713 139.807C174.927 138.479 173.124 136.295 171.311 134.478C169.624 132.784 166.512 130.012 164.395 128.317C162.278 126.619 158.669 123.445 156.375 121.261C154.081 119.078 151.483 116.827 150.6 116.254C149.718 115.685 147.986 114.862 146.751 114.431C145.432 113.968 143.447 113.579 141.939 113.482C140.527 113.392 138.577 113.444 137.608 113.595ZM218.61 138.566C217.904 138.829 216.749 139.469 216.044 139.981C215.338 140.495 214.244 141.608 213.609 142.45C212.977 143.296 212.155 144.492 211.78 145.113C211.408 145.734 210.734 147.325 210.282 148.65C209.833 149.978 209.323 152.111 209.146 153.394C208.935 154.931 208.931 156.683 209.14 158.539C209.313 160.086 209.688 162.15 209.974 163.121C210.259 164.093 211.02 165.89 211.665 167.109C212.393 168.492 213.564 170.016 214.76 171.145C216.108 172.415 217.214 173.139 218.45 173.553C219.418 173.878 220.862 174.145 221.658 174.145C222.45 174.145 223.893 173.885 224.865 173.566C226.203 173.126 227.101 172.512 228.58 171.029C229.881 169.723 230.922 168.267 231.705 166.659C232.35 165.334 233.129 163.305 233.437 162.157C233.838 160.665 233.999 158.825 234.002 155.725C234.008 152.078 233.89 150.998 233.264 148.972C232.853 147.647 231.968 145.618 231.294 144.47C230.624 143.322 229.405 141.765 228.593 141.013C227.778 140.26 226.354 139.286 225.427 138.845C224.189 138.257 223.233 138.051 221.818 138.064C220.759 138.074 219.316 138.302 218.61 138.566ZM256.945 147.075C256.15 147.229 254.636 147.782 253.577 148.303C252.518 148.824 250.85 149.946 249.872 150.798C248.89 151.651 247.501 153.072 246.783 153.956C246.064 154.841 245.031 156.362 244.486 157.333C243.94 158.304 243.125 160.189 242.676 161.514C242.227 162.842 241.695 165.083 241.496 166.498C241.217 168.463 241.22 169.643 241.515 171.482C241.727 172.811 242.291 174.747 242.766 175.788C243.26 176.869 244.216 178.213 244.996 178.924C245.746 179.606 246.866 180.381 247.482 180.647C248.168 180.943 249.602 181.13 251.171 181.13C252.82 181.13 254.341 180.921 255.422 180.545C256.349 180.223 257.972 179.371 259.031 178.647C260.089 177.924 261.482 176.776 262.126 176.097C262.771 175.415 263.894 173.991 264.622 172.93C265.35 171.868 266.393 169.916 266.938 168.588C267.484 167.263 268.125 165.237 268.366 164.086C268.606 162.938 268.805 160.948 268.809 159.664C268.812 158.381 268.655 156.574 268.459 155.645C268.26 154.715 267.769 153.233 267.365 152.348C266.929 151.4 265.925 150.104 264.914 149.191C263.785 148.168 262.652 147.483 261.597 147.177C260.715 146.923 259.631 146.73 259.191 146.753C258.748 146.776 257.738 146.917 256.945 147.075ZM190.38 158.179C190.027 158.269 189.231 158.5 188.615 158.693C187.999 158.889 186.719 159.783 185.773 160.684C184.827 161.581 183.723 162.967 183.319 163.765C182.918 164.562 182.324 166.08 182 167.141C181.567 168.569 181.42 170.077 181.429 172.93C181.439 175.052 181.625 177.438 181.846 178.236C182.064 179.033 182.834 180.914 183.553 182.416C184.519 184.436 185.414 185.709 186.979 187.291C188.272 188.597 189.783 189.755 190.861 190.256C191.83 190.713 193.491 191.173 194.55 191.282C196.067 191.443 196.85 191.343 198.239 190.822C199.208 190.456 200.581 189.668 201.287 189.07C201.992 188.472 203.025 187.127 203.584 186.085C204.142 185.04 204.822 183.387 205.095 182.416C205.367 181.445 205.682 179.779 205.794 178.718C205.906 177.657 205.849 175.705 205.662 174.377C205.476 173.052 205.037 171.026 204.681 169.875C204.328 168.723 203.491 166.881 202.823 165.778C202.156 164.675 200.812 162.964 199.843 161.973C198.817 160.925 197.274 159.783 196.154 159.246C195.095 158.735 193.507 158.249 192.625 158.169C191.743 158.089 190.732 158.092 190.38 158.179ZM270.9 180.345C269.665 180.779 267.862 181.603 266.897 182.175C265.928 182.751 264.016 184.342 262.646 185.712C260.606 187.754 259.9 188.742 258.745 191.179C257.969 192.816 257.176 194.842 256.981 195.681C256.785 196.521 256.625 198.186 256.621 199.38C256.618 200.573 256.83 202.274 257.087 203.158C257.343 204.042 257.889 205.264 258.293 205.875C258.7 206.483 259.643 207.461 260.394 208.046C261.145 208.628 262.37 209.265 263.121 209.461C263.871 209.654 265.421 209.808 266.569 209.802C267.727 209.799 269.582 209.506 270.74 209.146C271.888 208.792 273.906 207.792 275.231 206.924C276.553 206.056 278.368 204.567 279.26 203.608C280.155 202.653 281.48 200.859 282.205 199.621C282.93 198.383 283.861 196.283 284.271 194.958C284.839 193.122 285.012 191.816 284.999 189.491C284.983 186.893 284.858 186.172 284.149 184.667C283.69 183.696 282.744 182.39 282.048 181.773C281.349 181.156 280.001 180.39 279.049 180.078C278.054 179.75 276.428 179.519 275.231 179.535C273.903 179.551 272.331 179.847 270.9 180.345ZM223.582 182.413C222.257 182.77 220.31 183.484 219.251 184.002C218.193 184.519 216.39 185.648 215.242 186.507C214.093 187.365 212.22 188.706 211.071 189.484C209.923 190.266 207.109 191.98 204.816 193.292C202.522 194.607 199.416 196.521 197.918 197.543C196.42 198.566 194.037 200.611 192.625 202.087C191.214 203.56 189.603 205.634 189.045 206.695C188.487 207.757 187.784 209.493 187.48 210.554C187.085 211.944 186.969 213.249 187.069 215.217C187.175 217.314 187.409 218.382 188.07 219.8C188.548 220.816 189.639 222.408 190.498 223.337C191.361 224.267 192.911 225.492 193.947 226.061C194.986 226.63 196.844 227.322 198.079 227.601C199.452 227.91 203.189 228.219 207.703 228.392C213.259 228.608 215.774 228.843 217.888 229.344C219.431 229.711 221.597 230.351 222.7 230.769C223.804 231.187 225.497 231.93 226.469 232.422C227.438 232.914 230.037 234.412 232.244 235.75C234.448 237.091 237.191 238.577 238.339 239.059C239.488 239.542 241.361 240.098 242.509 240.297C244.02 240.561 245.169 240.567 246.68 240.317C247.828 240.127 249.522 239.612 250.449 239.172C251.376 238.731 252.82 237.738 253.657 236.966C254.495 236.194 255.637 234.708 256.195 233.67C256.753 232.631 257.459 230.91 257.763 229.849C258.203 228.315 258.28 227.129 258.148 224.061C258.02 221.07 257.786 219.588 257.106 217.468C256.625 215.967 254.539 211.333 252.473 207.178C250.408 203.023 248.457 198.823 248.139 197.852C247.819 196.881 247.01 194.926 246.337 193.511C245.663 192.096 244.412 190.07 243.552 189.009C242.622 187.861 240.96 186.388 239.443 185.368C237.839 184.291 235.946 183.358 234.329 182.85C232.68 182.329 230.733 181.992 228.875 181.905C226.662 181.799 225.427 181.918 223.582 182.413Z" fill="#1A3A3A"/>
<path d="M85.775 305.062C83.1083 305.062 80.7021 304.375 78.5563 303C76.4104 301.625 74.7125 299.604 73.4625 296.938C72.2125 294.25 71.5875 290.969 71.5875 287.094C71.5875 283.094 72.2333 279.76 73.525 277.094C74.8167 274.427 76.5354 272.438 78.6813 271.125C80.8271 269.792 83.1708 269.125 85.7125 269.125C87.6708 269.125 89.3063 269.458 90.6188 270.125C91.9313 270.771 92.9938 271.583 93.8063 272.562C94.6188 273.542 95.2333 274.51 95.65 275.469H95.9313V257.938H105.619V304.5H96.0875V298.906H95.65C95.2125 299.865 94.5771 300.823 93.7438 301.781C92.9104 302.719 91.8375 303.5 90.525 304.125C89.2333 304.75 87.65 305.062 85.775 305.062ZM96.15 287.062C96.15 283.938 95.5146 281.448 94.2438 279.594C92.9729 277.74 91.1604 276.812 88.8063 276.812C86.4104 276.812 84.5875 277.76 83.3375 279.656C82.1083 281.552 81.4938 284.021 81.4938 287.062C81.4938 290.083 82.1188 292.562 83.3688 294.5C84.6188 296.417 86.4313 297.375 88.8063 297.375C91.1396 297.375 92.9417 296.427 94.2125 294.531C95.5042 292.635 96.15 290.146 96.15 287.062ZM132.959 305.188C129.438 305.188 126.386 304.438 123.803 302.938C121.24 301.417 119.261 299.312 117.865 296.625C116.49 293.917 115.803 290.771 115.803 287.188C115.803 283.583 116.49 280.427 117.865 277.719C119.261 275.01 121.24 272.906 123.803 271.406C126.386 269.885 129.438 269.125 132.959 269.125C136.5 269.125 139.553 269.885 142.115 271.406C144.698 272.906 146.678 275.01 148.053 277.719C149.448 280.427 150.146 283.583 150.146 287.188C150.146 290.771 149.448 293.917 148.053 296.625C146.678 299.312 144.698 301.417 142.115 302.938C139.553 304.438 136.5 305.188 132.959 305.188ZM125.646 287.125C125.646 290.167 126.261 292.677 127.49 294.656C128.719 296.635 130.553 297.625 132.99 297.625C135.407 297.625 137.23 296.635 138.459 294.656C139.688 292.677 140.303 290.167 140.303 287.125C140.303 284.083 139.688 281.583 138.459 279.625C137.23 277.667 135.407 276.688 132.99 276.688C130.553 276.688 128.719 277.667 127.49 279.625C126.261 281.583 125.646 284.083 125.646 287.125ZM176.018 318.312C171.309 318.312 167.611 317.375 164.924 315.5C162.257 313.646 160.643 311.333 160.08 308.562L169.018 307.375C169.413 308.438 170.174 309.365 171.299 310.156C172.445 310.948 174.09 311.344 176.236 311.344C178.34 311.344 180.08 310.833 181.455 309.812C182.83 308.812 183.518 307.115 183.518 304.719V298.312H183.08C182.455 299.771 181.33 301.083 179.705 302.25C178.101 303.417 175.903 304 173.111 304C170.507 304 168.132 303.396 165.986 302.188C163.84 300.958 162.132 299.083 160.861 296.562C159.59 294.042 158.955 290.854 158.955 287C158.955 283.021 159.601 279.708 160.893 277.062C162.205 274.417 163.934 272.438 166.08 271.125C168.226 269.792 170.58 269.125 173.143 269.125C175.08 269.125 176.715 269.458 178.049 270.125C179.382 270.771 180.455 271.583 181.268 272.562C182.101 273.542 182.736 274.51 183.174 275.469H183.549V269.562H193.049V304.875C193.049 307.833 192.32 310.312 190.861 312.312C189.403 314.312 187.393 315.812 184.83 316.812C182.288 317.812 179.351 318.312 176.018 318.312ZM168.861 286.938C168.861 289.938 169.486 292.323 170.736 294.094C172.007 295.844 173.83 296.719 176.205 296.719C178.538 296.719 180.34 295.854 181.611 294.125C182.903 292.396 183.549 290 183.549 286.938C183.549 283.875 182.913 281.427 181.643 279.594C180.372 277.74 178.559 276.812 176.205 276.812C173.809 276.812 171.986 277.76 170.736 279.656C169.486 281.531 168.861 283.958 168.861 286.938ZM220.389 305.188C216.805 305.188 213.733 304.427 211.17 302.906C208.608 301.385 206.639 299.271 205.264 296.562C203.91 293.854 203.233 290.729 203.233 287.188C203.233 283.604 203.92 280.458 205.295 277.75C206.691 275.042 208.67 272.927 211.233 271.406C213.795 269.885 216.837 269.125 220.358 269.125C223.399 269.125 226.066 269.677 228.358 270.781C230.649 271.885 232.462 273.438 233.795 275.438C235.128 277.438 235.858 279.792 235.983 282.5H226.858C226.587 280.771 225.91 279.375 224.826 278.312C223.743 277.229 222.305 276.688 220.514 276.688C218.264 276.688 216.462 277.594 215.108 279.406C213.753 281.198 213.076 283.75 213.076 287.062C213.076 290.396 213.743 292.99 215.076 294.844C216.43 296.698 218.243 297.625 220.514 297.625C222.18 297.625 223.587 297.104 224.733 296.062C225.878 295.021 226.587 293.562 226.858 291.688H235.983C235.837 294.354 235.118 296.708 233.826 298.75C232.535 300.771 230.743 302.354 228.451 303.5C226.18 304.625 223.493 305.188 220.389 305.188ZM256.073 305.156C252.739 305.156 249.968 304.292 247.76 302.562C245.573 300.812 244.479 298.208 244.479 294.75C244.479 292.146 245.083 290.104 246.291 288.625C247.52 287.125 249.135 286.031 251.135 285.344C253.135 284.635 255.281 284.177 257.573 283.969C260.614 283.677 262.781 283.375 264.073 283.062C265.385 282.729 266.041 282 266.041 280.875V280.719C266.041 279.281 265.583 278.167 264.666 277.375C263.75 276.583 262.427 276.188 260.698 276.188C258.968 276.188 257.552 276.562 256.448 277.312C255.364 278.062 254.645 279.021 254.291 280.188L245.479 278.781C246.312 275.74 248.062 273.375 250.729 271.688C253.416 269.979 256.75 269.125 260.729 269.125C263.312 269.125 265.739 269.531 268.01 270.344C270.302 271.156 272.156 272.438 273.573 274.188C274.989 275.917 275.698 278.167 275.698 280.938V304.5H266.541V299.625H266.26C265.406 301.271 264.135 302.604 262.448 303.625C260.781 304.646 258.656 305.156 256.073 305.156ZM253.698 294.438C253.698 295.771 254.177 296.781 255.135 297.469C256.114 298.135 257.343 298.469 258.823 298.469C260.948 298.469 262.687 297.854 264.041 296.625C265.416 295.396 266.104 293.865 266.104 292.031V288.312C265.729 288.562 265.135 288.792 264.323 289C263.531 289.208 262.687 289.385 261.791 289.531C260.895 289.656 260.093 289.771 259.385 289.875C257.677 290.125 256.302 290.615 255.26 291.344C254.218 292.052 253.698 293.083 253.698 294.438ZM297.006 257.938V304.5H287.319V257.938H297.006Z" fill="#1A3A3A"/>
</svg>
